<svg width="43" height="43" viewBox="0 0 43 43" fill="none" xmlns="http://www.w3.org/2000/svg">
<rect width="43" height="43" rx="6" fill="#6295E2" fill-opacity="0.2"/>
<g clip-path="url(#clip0_9_702)">
<path d="M30.39 20.13C28.7537 18.2575 25.42 15.125 21.5 15.125C17.58 15.125 14.2462 18.2575 12.61 20.13C12.1398 20.6884 11.882 21.395 11.882 22.125C11.882 22.855 12.1398 23.5616 12.61 24.12C14.2462 25.9925 17.58 29.125 21.5 29.125C25.42 29.125 28.7537 25.9925 30.39 24.12C30.8601 23.5616 31.118 22.855 31.118 22.125C31.118 21.395 30.8601 20.6884 30.39 20.13ZM29.0687 23C27.625 24.645 24.6937 27.375 21.5 27.375C18.3062 27.375 15.375 24.61 13.9312 23C13.7364 22.7634 13.6298 22.4665 13.6298 22.16C13.6298 21.8535 13.7364 21.5566 13.9312 21.32C15.375 19.64 18.2712 16.875 21.5 16.875C24.7287 16.875 27.625 19.64 29.0687 21.25C29.2822 21.4915 29.4 21.8027 29.4 22.125C29.4 22.4473 29.2822 22.7585 29.0687 23ZM21.5 18.625C20.8077 18.625 20.131 18.8303 19.5555 19.2149C18.9799 19.5994 18.5313 20.1461 18.2664 20.7856C18.0015 21.4251 17.9322 22.1289 18.0672 22.8078C18.2023 23.4868 18.5356 24.1104 19.0251 24.5999C19.5146 25.0894 20.1382 25.4227 20.8172 25.5577C21.4961 25.6928 22.1998 25.6235 22.8394 25.3586C23.4789 25.0937 24.0255 24.6451 24.4101 24.0695C24.7947 23.4939 25 22.8172 25 22.125C25 21.1967 24.6312 20.3065 23.9748 19.6501C23.3185 18.9937 22.4282 18.625 21.5 18.625ZM21.5 23.875C21.1539 23.875 20.8155 23.7724 20.5277 23.5801C20.2399 23.3878 20.0156 23.1145 19.8832 22.7947C19.7507 22.4749 19.7161 22.1231 19.7836 21.7836C19.8511 21.4441 20.0178 21.1323 20.2625 20.8876C20.5073 20.6428 20.8191 20.4762 21.1586 20.4086C21.498 20.3411 21.8499 20.3758 22.1697 20.5082C22.4894 20.6407 22.7627 20.865 22.955 21.1528C23.1473 21.4405 23.25 21.7789 23.25 22.125C23.25 22.5891 23.0656 23.0342 22.7374 23.3624C22.4092 23.6906 21.9641 23.875 21.5 23.875ZM20.625 12.5V10.75C20.625 10.5179 20.7172 10.2954 20.8813 10.1313C21.0453 9.96719 21.2679 9.875 21.5 9.875C21.732 9.875 21.9546 9.96719 22.1187 10.1313C22.2828 10.2954 22.375 10.5179 22.375 10.75V12.5C22.375 12.7321 22.2828 12.9546 22.1187 13.1187C21.9546 13.2828 21.732 13.375 21.5 13.375C21.2679 13.375 21.0453 13.2828 20.8813 13.1187C20.7172 12.9546 20.625 12.7321 20.625 12.5ZM16.3375 11.9488C16.2504 11.7351 16.2512 11.4958 16.3397 11.2828C16.4282 11.0698 16.5972 10.9003 16.81 10.8113C16.9185 10.7598 17.0365 10.7312 17.1565 10.7273C17.2766 10.7234 17.3961 10.7443 17.5078 10.7886C17.6194 10.833 17.7207 10.8998 17.8054 10.985C17.8901 11.0702 17.9563 11.1719 18 11.2838L18.665 12.9025C18.7194 13.0351 18.7405 13.179 18.7263 13.3216C18.7121 13.4642 18.6631 13.6011 18.5837 13.7204C18.5042 13.8396 18.3966 13.9375 18.2704 14.0054C18.1442 14.0734 18.0033 14.1093 17.86 14.11C17.6872 14.1091 17.5186 14.0572 17.3753 13.9606C17.2321 13.8641 17.1206 13.7273 17.055 13.5675L16.3375 11.9488ZM12.8375 14.6963C12.6941 14.5289 12.6192 14.3135 12.6277 14.0933C12.6362 13.8731 12.7275 13.6642 12.8834 13.5084C13.0392 13.3525 13.2481 13.2613 13.4683 13.2528C13.6885 13.2442 13.9038 13.3192 14.0712 13.4625L15.3137 14.6963C15.3957 14.7776 15.4608 14.8744 15.5052 14.981C15.5497 15.0876 15.5725 15.202 15.5725 15.3175C15.5725 15.433 15.5497 15.5474 15.5052 15.654C15.4608 15.7606 15.3957 15.8574 15.3137 15.9388C15.232 16.0198 15.135 16.084 15.0284 16.1276C14.9218 16.1711 14.8076 16.1932 14.6925 16.1925C14.5773 16.1932 14.4632 16.1711 14.3565 16.1276C14.2499 16.084 14.153 16.0198 14.0712 15.9388L12.8375 14.6963ZM24.3787 12.9463L25.0437 11.3275C25.0878 11.2211 25.1524 11.1244 25.2339 11.043C25.3154 10.9616 25.4122 10.8971 25.5187 10.8532C25.6252 10.8093 25.7393 10.7869 25.8545 10.7872C25.9697 10.7875 26.0837 10.8105 26.19 10.855C26.4028 10.944 26.5718 11.1135 26.6603 11.3265C26.7488 11.5396 26.7495 11.7789 26.6625 11.9925L25.9887 13.6113C25.9231 13.771 25.8116 13.9078 25.6683 14.0044C25.5251 14.1009 25.3565 14.1529 25.1837 14.1537C25.0404 14.153 24.8995 14.1171 24.7733 14.0492C24.6471 13.9813 24.5395 13.8834 24.46 13.7641C24.3805 13.6449 24.3315 13.5079 24.3174 13.3653C24.3032 13.2227 24.3243 13.0788 24.3787 12.9463ZM27.6862 15.9825C27.6042 15.9012 27.5391 15.8044 27.4947 15.6978C27.4503 15.5911 27.4274 15.4768 27.4274 15.3613C27.4274 15.2457 27.4503 15.1314 27.4947 15.0247C27.5391 14.9181 27.6042 14.8213 27.6862 14.74L28.9287 13.4625C29.0072 13.3709 29.1037 13.2965 29.2122 13.244C29.3208 13.1915 29.439 13.162 29.5595 13.1573C29.6801 13.1526 29.8002 13.173 29.9125 13.2169C30.0248 13.2609 30.1268 13.3277 30.212 13.4129C30.2973 13.4982 30.364 13.6002 30.408 13.7125C30.452 13.8248 30.4723 13.9449 30.4677 14.0654C30.463 14.1859 30.4335 14.3042 30.381 14.4127C30.3285 14.5213 30.2541 14.6178 30.1625 14.6963L28.9287 15.9388C28.847 16.0198 28.75 16.084 28.6434 16.1276C28.5368 16.1711 28.4226 16.1932 28.3075 16.1925C28.1923 16.1932 28.0782 16.1711 27.9715 16.1276C27.8649 16.084 27.768 16.0198 27.6862 15.9388V15.9825Z" fill="#6295E2"/>
</g>
<defs>
<clipPath id="clip0_9_702">
<rect width="21" height="21" fill="white" transform="translate(11 9)"/>
</clipPath>
</defs>
</svg>
